<?xml version="1.0" encoding="UTF-8"?>
<svg xmlns="http://www.w3.org/2000/svg" viewBox="0 0 1200 1200"><g>
    <path d="M485.41,296.239c5.787-4.766,13.277-20.766,13.617-29.957.34-9.192,9.192-27.915,21.787-32.34,12.596-4.426,14.979-4.085,18.383-13.617s8.511-13.277,8.511-13.277c0,0,5.106,4.426,2.383,11.915s.34,11.574,3.404,9.191c3.064-2.383,17.362-9.872,17.362-9.872,0,0-3.064,12.596-2.043,16.681,1.021,4.085,7.489,7.83,4.426,13.277-3.064,5.447-3.404,8.851-.681,11.574,2.723,2.723-.34,10.553,1.362,14.979,65.702-42.894,206.638-88.511,206.638-88.511-25.021-9.702-159.319-51.574-305.362-4.085-146.043,47.489-227.745,151.149-227.745,151.149,0,0-6.808,48.34-6.468,103.83.34,55.489,10.894,93.957,10.894,93.957,0,0,41.191-60.596,101.787-121.532,60.596-60.936,125.617-98.553,125.617-98.553,0,0,.34-10.043,6.128-14.808Z" fill="#ba0109"/>
    <path d="M850.006,518.877c-28.766,25.872-58.383,73.532-59.745,73.532s-2.383-1.702-.34-4.255c2.043-2.553,5.106-7.489,1.872-9.532-3.234-2.043-13.787,1.021-15.489,1.362-1.702.34-2.213-9.872-1.702-14.298.511-4.426,7.66-11.915,8.34-19.915s-6.128-18.553-6.128-18.553l53.787-30.638s-21.277,0-41.021,3.234c-19.745,3.234-21.106-.34-19.234-7.489,1.872-7.149,44.426-48,44.426-48,0,0-17.021,8.34-40.17,19.574-23.149,11.234-33.362,15.489-33.872,5.787-.511-9.702,16.511-74.383,16.511-74.383,0,0-14.128,23.489-24,37.957-9.872,14.468-17.872,26.213-25.021,25.021-7.149-1.192-41.872-89.872-41.872-89.872,0,0,2.383,30.638,6.298,57.532,3.915,26.894,5.106,37.277-1.702,38.128-6.809.851-67.745-43.404-67.745-43.404,0,0,43.064,60.085,43.234,62.979.17,2.894-44.936-7.489-44.936-7.489,0,0,6.298,9.021,21.787,20.255,15.489,11.234,17.872,14.809,11.745,22.809-4.213,5.5-14.139,11.001-19.93,13.901-8.634-17.371-17.494-37.949-24.495-58.156-14.979-43.234-22.468-83.404-22.808-103.149-.34-19.745-11.915-28.596-11.915-33.362s18.043-6.809,22.468-17.362c4.426-10.553-2.383-26.894-5.447-32-3.064-5.106,1.021-14.298,1.021-14.298-1.702-4.426,1.362-12.255-1.362-14.979-.738-.738-1.243-1.528-1.538-2.392-8.825,8.225-16.811,10.178-25.016,4.435-10.213-7.149-20.766-.681-33.362,7.489-5.558,3.605-10.054,2.964-13.9-.277-1.464,9.342-8.096,22.857-13.334,27.17-5.787,4.766-6.128,14.808-6.128,14.808-2.383,14.979,12.426,21.787,17.021,22.298,4.596.511,8.851,4.255,6.809,7.319-2.043,3.064-3.404,10.553-2.213,22.468,1.191,11.915,4.936,12.426,5.447,10.383.511-2.043.17-9.872,1.872-8.681,1.702,1.192,1.362,18.043,5.447,29.277,4.085,11.234-.426,28.851-.17,32.936.255,4.085,15.83,10.723,17.617,7.404s4.085-15.064,4.34-14.298c.255.766.511,21.957,4.085,63.974,3.574,42.016,23.234,101.729,23.234,101.729,0,0,20.681-30.383,25.021-30.383s2.808,4.34-8.17,19.149c-10.979,14.809-16.596,21.957-28.34,38.553-11.745,16.596-14.298,40.085-9.957,54.638,4.34,14.553,8.936,34.468,8.936,34.468l13.021-5.617c-8.681,16.596-47.745,41.617-122.298,42.638-74.553,1.021-136.851-37.787-136.851-37.787,37.277,70.213,88.851,106.723,88.851,106.723,93.191,1.532,176.681-30.128,176.681-30.128,0,0,10.723-42.383,28.596-70.468,17.872-28.085,42.383-53.617,52.085-58.468,9.702-4.851,94.213-20.426,94.213-20.426,0,0-16.596,20.681-38.043,37.787-21.447,17.106-38.809,26.298-38.809,26.298,3.83-4.851,65.362-59.234,65.362-59.234-48,16.085-84.255,25.787-115.404,65.872-31.149,40.085-41.872,76.596-41.872,76.596,60.255-13.787,163.915-66.638,227.489-105.702s145.021-113.106,145.021-113.106l10.723-100.085c-38.043,8.936-80.255,35.83-109.021,61.702ZM590.347,669.515c-11.66,16.681-19.745,18.213-16.511,15.319,3.427-3.067,15.404-18.468,19.83-25.106,4.424-6.637,6.042-10.978,6.979-11.149.936-.171-2.545,9.844-10.298,20.936ZM590.687,633.175c-5.702,9.447-13.617,26.809-14.723,27.064s.426-7.319,3.404-15.149c2.979-7.83,18.787-36.067,22.83-36.936,1.979-.426-5.809,15.574-11.511,25.021ZM649.921,595.302c-1.191-.425-8.295-14.599-6.808-13.702,5.362,3.234,8,14.128,6.808,13.702ZM676.474,626.813c0-.532-6.809-21.383-16.596-32.106s-24.085-23.149-28.851-33.362c-4.766-10.213-11.029-20.182-10.128-20.681,7.445-4.12,23.234-6.298,22.298-4.17-.936,2.128-2.213,15.489,1.957,21.021,4.17,5.532,24.705,22.213,28.82,28.681,4.116,6.468,1.477,10.979,2.754,16.851,1.277,5.872,4.17,12.596,4.085,15.489-.085,2.894-4.34,8.809-4.34,8.277ZM682.857,567.302c-1.532,3.489-1.957,7.064-3.234,6.128s-10.383-15.915-12.511-18.979c-2.128-3.064-3.231-5.944-2.298-6.809,3.973-3.683,7.745-6.043,7.064-2.979-.681,3.064,3.149,11.745,7.149,15.745s5.362,3.404,3.83,6.894ZM713.41,501.175c-2.298-.085-21.277,2.723-28.596,5.702-7.319,2.979-16.851,14.894-20.255,14.468-5.176-.647,9.872-29.957,20.596-35.83,10.723-5.872,16.851,2.894,22.808,8.34,5.957,5.447,7.745,7.404,5.447,7.319Z" fill="#ffffff"/>
    <path d="M254.602,557.005s92.936-144.34,212.426-187.234c0,0-52.085,46.979-71.489,139.574-19.404,92.596,7.83,181.787,21.447,199.149,0,0-70.468,3.745-105.872-28.936-35.404-32.681-46.298-70.468-56.511-122.553Z" fill="#ffffff"/>
    <path d="M610.006,290.792s65.021-40.851,115.745-62.298c50.723-21.447,96-30.298,108.596-28.596s59.064,18.383,124.681,67.404v140.255s-72.825-55.112-176.085-89.532c-94.979-31.66-172.936-27.234-172.936-27.234Z" fill="#ffffff"/>
    <path d="M573.119,835.302s118.59-42.383,212.037-109.277,162.383-150.128,162.383-150.128c0,0-16.276,72.035-50.043,130.979-29.106,50.809-61.277,89.725-82.213,101.416-20.936,11.691-130.967,36.201-242.164,27.01Z" fill="#bd0309"/>
    <g>
      <polygon points="324.559 1011.983 324.559 1023.473 246.687 1017.728 324.559 1011.983" fill="#ffffff"/>
      <polygon points="866.793 1011.983 866.793 1023.473 944.666 1017.728 866.793 1011.983" fill="#ffffff"/>
    </g>
  </g><g>
    <path d="M246.852,866.835h25.447v85.68h57.667v21.42h-83.114v-107.1Z" fill="#ffffff"/>
    <path d="M348.639,866.835h25.447v107.1h-25.447v-107.1Z" fill="#ffffff"/>
    <path d="M401.35,866.835h53.702c13.219,0,23.629,3.365,30.238,9.485,5.288,4.896,7.932,10.863,7.932,18.207v.307c0,12.087-6.94,18.818-15.202,23.103,13.384,4.743,21.646,11.934,21.646,26.316v.306c0,19.584-17.185,29.376-43.292,29.376h-55.024v-107.1ZM467.94,898.505c0-7.038-5.949-11.017-16.689-11.017h-25.116v22.645h23.464c11.236,0,18.341-3.366,18.341-11.322v-.306ZM455.547,929.717h-29.412v23.562h30.238c11.236,0,18.011-3.672,18.011-11.628v-.306c0-7.191-5.784-11.628-18.837-11.628Z" fill="#ffffff"/>
    <path d="M518.998,866.835h87.246v20.961h-61.964v21.726h54.528v20.961h-54.528v22.491h62.791v20.961h-88.072v-107.1Z" fill="#ffffff"/>
    <path d="M628.056,866.835h52.876c14.706,0,26.107,3.824,33.708,10.862,6.444,5.968,9.914,14.383,9.914,24.48v.306c0,17.289-10.079,28.152-24.785,33.201l28.255,38.25h-29.742l-24.786-34.271h-19.993v34.271h-25.446v-107.1ZM679.28,918.854c12.393,0,19.497-6.12,19.497-15.146v-.307c0-10.098-7.601-15.3-19.993-15.3h-25.281v30.753h25.777Z" fill="#ffffff"/>
    <path d="M772.804,888.56h-35.195v-21.726h95.838v21.726h-35.196v85.374h-25.446v-85.374Z" fill="#ffffff"/>
    <path d="M883.844,931.707l-44.449-64.872h29.743l27.595,42.992,28.09-42.992h28.917l-44.449,64.413v42.687h-25.446v-42.228Z" fill="#ffffff"/>
  </g><g>
    <path d="M348.175,1000.883h16.988c9.921,0,15.92,5.444,15.92,13.309v.11c0,8.908-7.484,13.527-16.811,13.527h-6.95v11.549h-9.147v-38.495ZM364.569,1020.296c4.574,0,7.247-2.53,7.247-5.83v-.109c0-3.795-2.852-5.829-7.425-5.829h-7.069v11.769h7.247Z" fill="#bd0309"/>
    <path d="M390.824,1000.883h19.009c5.286,0,9.385,1.375,12.118,3.904,2.316,2.146,3.563,5.17,3.563,8.799v.11c0,6.214-3.623,10.119-8.91,11.934l10.158,13.748h-10.692l-8.911-12.318h-7.188v12.318h-9.147v-38.495ZM409.238,1019.582c4.455,0,7.01-2.2,7.01-5.444v-.11c0-3.63-2.732-5.499-7.188-5.499h-9.089v11.054h9.267Z" fill="#bd0309"/>
    <path d="M434.897,1020.241v-.109c0-10.944,9.326-19.907,22.157-19.907s22.038,8.854,22.038,19.797v.11c0,10.943-9.326,19.907-22.157,19.907s-22.038-8.854-22.038-19.798ZM469.529,1020.241v-.109c0-6.6-5.228-12.099-12.594-12.099s-12.475,5.389-12.475,11.988v.11c0,6.599,5.228,12.098,12.594,12.098s12.475-5.389,12.475-11.988Z" fill="#bd0309"/>
    <path d="M509.146,1020.241v-.109c0-10.944,8.91-19.907,21.682-19.907,7.841,0,12.534,2.419,16.396,5.938l-5.821,6.215c-3.208-2.695-6.476-4.345-10.634-4.345-7.009,0-12.059,5.389-12.059,11.988v.11c0,6.599,4.931,12.098,12.059,12.098,4.753,0,7.663-1.76,10.931-4.509l5.821,5.444c-4.277,4.234-9.029,6.874-17.049,6.874-12.236,0-21.325-8.744-21.325-19.798Z" fill="#bd0309"/>
    <path d="M554.765,1020.241v-.109c0-10.944,9.326-19.907,22.157-19.907s22.038,8.854,22.038,19.797v.11c0,10.943-9.326,19.907-22.157,19.907s-22.038-8.854-22.038-19.798ZM589.397,1020.241v-.109c0-6.6-5.228-12.099-12.594-12.099s-12.475,5.389-12.475,11.988v.11c0,6.599,5.228,12.098,12.594,12.098s12.475-5.389,12.475-11.988Z" fill="#bd0309"/>
    <path d="M621.65,1000.609h8.436l17.82,38.77h-9.563l-3.802-8.634h-17.583l-3.802,8.634h-9.326l17.82-38.77ZM631.273,1023.265l-5.524-12.482-5.524,12.482h11.049Z" fill="#bd0309"/>
    <path d="M661.626,1008.693h-12.653v-7.81h34.453v7.81h-12.652v30.686h-9.147v-30.686Z" fill="#bd0309"/>
    <path d="M693.82,1000.883h9.148v38.495h-9.148v-38.495Z" fill="#bd0309"/>
    <path d="M716.332,1000.883h8.435l19.484,23.702v-23.702h9.029v38.495h-7.782l-20.138-24.472v24.472h-9.028v-38.495Z" fill="#bd0309"/>
    <path d="M764.386,1020.241v-.109c0-10.944,9.207-19.907,21.801-19.907,7.484,0,11.999,1.869,16.336,5.279l-5.763,6.434c-3.208-2.475-6.059-3.904-10.87-3.904-6.653,0-11.94,5.444-11.94,11.988v.11c0,7.039,5.228,12.208,12.594,12.208,3.326,0,6.297-.77,8.613-2.31v-5.499h-9.208v-7.314h18.059v16.718c-4.276,3.354-10.157,6.104-17.761,6.104-12.95,0-21.86-8.414-21.86-19.798Z" fill="#bd0309"/>
    <path d="M812.916,1033.769l5.405-5.994c3.742,2.859,7.663,4.675,12.415,4.675,3.742,0,6-1.375,6-3.63v-.11c0-2.145-1.426-3.244-8.376-4.894-8.376-1.98-13.781-4.125-13.781-11.769v-.11c0-6.984,6.059-11.604,14.554-11.604,6.059,0,11.227,1.76,15.444,4.895l-4.752,6.379c-3.683-2.364-7.307-3.794-10.812-3.794s-5.346,1.484-5.346,3.354v.109c0,2.53,1.782,3.354,8.97,5.06,8.435,2.035,13.188,4.84,13.188,11.549v.109c0,7.645-6.297,11.934-15.267,11.934-6.297,0-12.653-2.034-17.643-6.159Z" fill="#bd0309"/>
  </g>
</svg>
