<?xml version="1.0" encoding="UTF-8"?>
<svg xmlns="http://www.w3.org/2000/svg" viewBox="240 158 720 681"><g>
    <path d="M485.41,296.239c5.787-4.766,13.277-20.766,13.617-29.957.34-9.192,9.192-27.915,21.787-32.34,12.596-4.426,14.979-4.085,18.383-13.617s8.511-13.277,8.511-13.277c0,0,5.106,4.426,2.383,11.915s.34,11.574,3.404,9.191c3.064-2.383,17.362-9.872,17.362-9.872,0,0-3.064,12.596-2.043,16.681,1.021,4.085,7.489,7.83,4.426,13.277-3.064,5.447-3.404,8.851-.681,11.574,2.723,2.723-.34,10.553,1.362,14.979,65.702-42.894,206.638-88.511,206.638-88.511-25.021-9.702-159.319-51.574-305.362-4.085-146.043,47.489-227.745,151.149-227.745,151.149,0,0-6.808,48.34-6.468,103.83.34,55.489,10.894,93.957,10.894,93.957,0,0,41.191-60.596,101.787-121.532,60.596-60.936,125.617-98.553,125.617-98.553,0,0,.34-10.043,6.128-14.808Z" fill="#ba0109"/>
    <path d="M850.006,518.877c-28.766,25.872-58.383,73.532-59.745,73.532s-2.383-1.702-.34-4.255c2.043-2.553,5.106-7.489,1.872-9.532-3.234-2.043-13.787,1.021-15.489,1.362-1.702.34-2.213-9.872-1.702-14.298.511-4.426,7.66-11.915,8.34-19.915s-6.128-18.553-6.128-18.553l53.787-30.638s-21.277,0-41.021,3.234c-19.745,3.234-21.106-.34-19.234-7.489,1.872-7.149,44.426-48,44.426-48,0,0-17.021,8.34-40.17,19.574-23.149,11.234-33.362,15.489-33.872,5.787-.511-9.702,16.511-74.383,16.511-74.383,0,0-14.128,23.489-24,37.957-9.872,14.468-17.872,26.213-25.021,25.021-7.149-1.192-41.872-89.872-41.872-89.872,0,0,2.383,30.638,6.298,57.532,3.915,26.894,5.106,37.277-1.702,38.128-6.809.851-67.745-43.404-67.745-43.404,0,0,43.064,60.085,43.234,62.979.17,2.894-44.936-7.489-44.936-7.489,0,0,6.298,9.021,21.787,20.255,15.489,11.234,17.872,14.809,11.745,22.809-4.213,5.5-14.139,11.001-19.93,13.901-8.634-17.371-17.494-37.949-24.495-58.156-14.979-43.234-22.468-83.404-22.808-103.149-.34-19.745-11.915-28.596-11.915-33.362s18.043-6.809,22.468-17.362c4.426-10.553-2.383-26.894-5.447-32-3.064-5.106,1.021-14.298,1.021-14.298-1.702-4.426,1.362-12.255-1.362-14.979-.738-.738-1.243-1.528-1.538-2.392-8.825,8.225-16.811,10.178-25.016,4.435-10.213-7.149-20.766-.681-33.362,7.489-5.558,3.605-10.054,2.964-13.9-.277-1.464,9.342-8.096,22.857-13.334,27.17-5.787,4.766-6.128,14.808-6.128,14.808-2.383,14.979,12.426,21.787,17.021,22.298,4.596.511,8.851,4.255,6.809,7.319-2.043,3.064-3.404,10.553-2.213,22.468,1.191,11.915,4.936,12.426,5.447,10.383.511-2.043.17-9.872,1.872-8.681,1.702,1.192,1.362,18.043,5.447,29.277,4.085,11.234-.426,28.851-.17,32.936.255,4.085,15.83,10.723,17.617,7.404s4.085-15.064,4.34-14.298c.255.766.511,21.957,4.085,63.974,3.574,42.016,23.234,101.729,23.234,101.729,0,0,20.681-30.383,25.021-30.383s2.808,4.34-8.17,19.149c-10.979,14.809-16.596,21.957-28.34,38.553-11.745,16.596-14.298,40.085-9.957,54.638,4.34,14.553,8.936,34.468,8.936,34.468l13.021-5.617c-8.681,16.596-47.745,41.617-122.298,42.638-74.553,1.021-136.851-37.787-136.851-37.787,37.277,70.213,88.851,106.723,88.851,106.723,93.191,1.532,176.681-30.128,176.681-30.128,0,0,10.723-42.383,28.596-70.468,17.872-28.085,42.383-53.617,52.085-58.468,9.702-4.851,94.213-20.426,94.213-20.426,0,0-16.596,20.681-38.043,37.787-21.447,17.106-38.809,26.298-38.809,26.298,3.83-4.851,65.362-59.234,65.362-59.234-48,16.085-84.255,25.787-115.404,65.872-31.149,40.085-41.872,76.596-41.872,76.596,60.255-13.787,163.915-66.638,227.489-105.702s145.021-113.106,145.021-113.106l10.723-100.085c-38.043,8.936-80.255,35.83-109.021,61.702ZM590.347,669.515c-11.66,16.681-19.745,18.213-16.511,15.319,3.427-3.067,15.404-18.468,19.83-25.106,4.424-6.637,6.042-10.978,6.979-11.149.936-.171-2.545,9.844-10.298,20.936ZM590.687,633.175c-5.702,9.447-13.617,26.809-14.723,27.064s.426-7.319,3.404-15.149c2.979-7.83,18.787-36.067,22.83-36.936,1.979-.426-5.809,15.574-11.511,25.021ZM649.921,595.302c-1.191-.425-8.295-14.599-6.808-13.702,5.362,3.234,8,14.128,6.808,13.702ZM676.474,626.813c0-.532-6.809-21.383-16.596-32.106s-24.085-23.149-28.851-33.362c-4.766-10.213-11.029-20.182-10.128-20.681,7.445-4.12,23.234-6.298,22.298-4.17-.936,2.128-2.213,15.489,1.957,21.021,4.17,5.532,24.705,22.213,28.82,28.681,4.116,6.468,1.477,10.979,2.754,16.851,1.277,5.872,4.17,12.596,4.085,15.489-.085,2.894-4.34,8.809-4.34,8.277ZM682.857,567.302c-1.532,3.489-1.957,7.064-3.234,6.128s-10.383-15.915-12.511-18.979c-2.128-3.064-3.231-5.944-2.298-6.809,3.973-3.683,7.745-6.043,7.064-2.979-.681,3.064,3.149,11.745,7.149,15.745s5.362,3.404,3.83,6.894ZM713.41,501.175c-2.298-.085-21.277,2.723-28.596,5.702-7.319,2.979-16.851,14.894-20.255,14.468-5.176-.647,9.872-29.957,20.596-35.83,10.723-5.872,16.851,2.894,22.808,8.34,5.957,5.447,7.745,7.404,5.447,7.319Z" fill="#02315e"/>
    <path d="M254.602,557.005s92.936-144.34,212.426-187.234c0,0-52.085,46.979-71.489,139.574-19.404,92.596,7.83,181.787,21.447,199.149,0,0-70.468,3.745-105.872-28.936-35.404-32.681-46.298-70.468-56.511-122.553Z" fill="#02315e"/>
    <path d="M610.006,290.792s65.021-40.851,115.745-62.298c50.723-21.447,96-30.298,108.596-28.596s59.064,18.383,124.681,67.404v140.255s-72.825-55.112-176.085-89.532c-94.979-31.66-172.936-27.234-172.936-27.234Z" fill="#02315e"/>
    <path d="M573.119,835.302s118.59-42.383,212.037-109.277,162.383-150.128,162.383-150.128c0,0-16.276,72.035-50.043,130.979-29.106,50.809-61.277,89.725-82.213,101.416-20.936,11.691-130.967,36.201-242.164,27.01Z" fill="#bd0309"/>
    <g>
      <polygon points="324.559 1011.983 324.559 1023.473 246.687 1017.728 324.559 1011.983" fill="#02315e"/>
      <polygon points="866.793 1011.983 866.793 1023.473 944.666 1017.728 866.793 1011.983" fill="#02315e"/>
    </g>
  </g>
</svg>
